<?xml version="1.0" encoding="UTF-8" standalone="no"?>
<svg xmlns="http://www.w3.org/2000/svg" xmlns:xlink="http://www.w3.org/1999/xlink"  version="1.2" baseProfile="tiny">
<title>SVG representation of database model</title>
<desc>SVG file generated by pgModeler</desc>
<defs>
<linearGradient gradientUnits="objectBoundingBox" x1="0" y1="0" x2="0" y2="1" id="gradient1">
    <stop offset="0" stop-color="#fcfcfc" stop-opacity="1" />
    <stop offset="1" stop-color="#fcfcfc" stop-opacity="1" />
</linearGradient>
<linearGradient gradientUnits="objectBoundingBox" x1="0" y1="0" x2="0" y2="1" id="gradient2">
    <stop offset="0" stop-color="#fcfcfc" stop-opacity="1" />
    <stop offset="1" stop-color="#fcfcfc" stop-opacity="1" />
</linearGradient>
<linearGradient gradientUnits="objectBoundingBox" x1="0" y1="0" x2="0" y2="1" id="gradient3">
    <stop offset="0" stop-color="#ffff80" stop-opacity="1" />
    <stop offset="1" stop-color="#ffff80" stop-opacity="1" />
</linearGradient>
<linearGradient gradientUnits="objectBoundingBox" x1="0" y1="0" x2="0" y2="1" id="gradient4">
    <stop offset="0" stop-color="#d2e9ff" stop-opacity="1" />
    <stop offset="1" stop-color="#d2e9ff" stop-opacity="1" />
</linearGradient>
<linearGradient gradientUnits="objectBoundingBox" x1="0" y1="0" x2="0" y2="1" id="gradient5">
    <stop offset="0" stop-color="#e0e0e0" stop-opacity="1" />
    <stop offset="1" stop-color="#e0e0e0" stop-opacity="1" />
</linearGradient>
<linearGradient gradientUnits="objectBoundingBox" x1="0" y1="0" x2="0" y2="1" id="gradient6">
    <stop offset="0" stop-color="#e0e0e0" stop-opacity="1" />
    <stop offset="1" stop-color="#e0e0e0" stop-opacity="1" />
</linearGradient>
<linearGradient gradientUnits="objectBoundingBox" x1="0" y1="0" x2="0" y2="1" id="gradient7">
    <stop offset="0" stop-color="#e0e0e0" stop-opacity="1" />
    <stop offset="1" stop-color="#e0e0e0" stop-opacity="1" />
</linearGradient>
<linearGradient gradientUnits="objectBoundingBox" x1="0" y1="0" x2="0" y2="1" id="gradient8">
    <stop offset="0" stop-color="#d2e9ff" stop-opacity="1" />
    <stop offset="1" stop-color="#d2e9ff" stop-opacity="1" />
</linearGradient>
<linearGradient gradientUnits="objectBoundingBox" x1="0" y1="0" x2="0" y2="1" id="gradient9">
    <stop offset="0" stop-color="#e0e0e0" stop-opacity="1" />
    <stop offset="1" stop-color="#e0e0e0" stop-opacity="1" />
</linearGradient>
<linearGradient gradientUnits="objectBoundingBox" x1="0" y1="0" x2="0" y2="1" id="gradient10">
    <stop offset="0" stop-color="#c5cbff" stop-opacity="1" />
    <stop offset="1" stop-color="#c5cbff" stop-opacity="1" />
</linearGradient>
<linearGradient gradientUnits="objectBoundingBox" x1="0" y1="0" x2="0" y2="1" id="gradient11">
    <stop offset="0" stop-color="#fcfcfc" stop-opacity="1" />
    <stop offset="1" stop-color="#fcfcfc" stop-opacity="1" />
</linearGradient>
<linearGradient gradientUnits="objectBoundingBox" x1="0" y1="0" x2="0" y2="1" id="gradient12">
    <stop offset="0" stop-color="#ffffff" stop-opacity="1" />
    <stop offset="1" stop-color="#c0c0c0" stop-opacity="1" />
</linearGradient>
<linearGradient gradientUnits="objectBoundingBox" x1="0" y1="0" x2="0" y2="1" id="gradient13">
    <stop offset="0" stop-color="#fcfcfc" stop-opacity="1" />
    <stop offset="1" stop-color="#fcfcfc" stop-opacity="1" />
</linearGradient>
<linearGradient gradientUnits="objectBoundingBox" x1="0" y1="0" x2="0" y2="1" id="gradient14">
    <stop offset="0" stop-color="#ffffff" stop-opacity="1" />
    <stop offset="1" stop-color="#c0c0c0" stop-opacity="1" />
</linearGradient>
<linearGradient gradientUnits="objectBoundingBox" x1="0" y1="0" x2="0" y2="1" id="gradient15">
    <stop offset="0" stop-color="#fcfcfc" stop-opacity="1" />
    <stop offset="1" stop-color="#fcfcfc" stop-opacity="1" />
</linearGradient>
<linearGradient gradientUnits="objectBoundingBox" x1="0" y1="0" x2="0" y2="1" id="gradient16">
    <stop offset="0" stop-color="#ffffff" stop-opacity="1" />
    <stop offset="1" stop-color="#c0c0c0" stop-opacity="1" />
</linearGradient>
<linearGradient gradientUnits="objectBoundingBox" x1="0" y1="0" x2="0" y2="1" id="gradient17">
    <stop offset="0" stop-color="#fcfcfc" stop-opacity="1" />
    <stop offset="1" stop-color="#fcfcfc" stop-opacity="1" />
</linearGradient>
<linearGradient gradientUnits="objectBoundingBox" x1="0" y1="0" x2="0" y2="1" id="gradient18">
    <stop offset="0" stop-color="#ffffff" stop-opacity="1" />
    <stop offset="1" stop-color="#c0c0c0" stop-opacity="1" />
</linearGradient>
<linearGradient gradientUnits="objectBoundingBox" x1="0" y1="0" x2="0" y2="1" id="gradient19">
    <stop offset="0" stop-color="#fcfcfc" stop-opacity="1" />
    <stop offset="1" stop-color="#fcfcfc" stop-opacity="1" />
</linearGradient>
<linearGradient gradientUnits="objectBoundingBox" x1="0" y1="0" x2="0" y2="1" id="gradient20">
    <stop offset="0" stop-color="#ffffff" stop-opacity="1" />
    <stop offset="1" stop-color="#c0c0c0" stop-opacity="1" />
</linearGradient>
<linearGradient gradientUnits="objectBoundingBox" x1="0" y1="0" x2="0" y2="1" id="gradient21">
    <stop offset="0" stop-color="#fcfcfc" stop-opacity="1" />
    <stop offset="1" stop-color="#fcfcfc" stop-opacity="1" />
</linearGradient>
<linearGradient gradientUnits="objectBoundingBox" x1="0" y1="0" x2="0" y2="1" id="gradient22">
    <stop offset="0" stop-color="#ffffff" stop-opacity="1" />
    <stop offset="1" stop-color="#c0c0c0" stop-opacity="1" />
</linearGradient>
<linearGradient gradientUnits="objectBoundingBox" x1="0" y1="0" x2="0" y2="1" id="gradient23">
    <stop offset="0" stop-color="#fcfcfc" stop-opacity="1" />
    <stop offset="1" stop-color="#fcfcfc" stop-opacity="1" />
</linearGradient>
<linearGradient gradientUnits="objectBoundingBox" x1="0" y1="0" x2="0" y2="1" id="gradient24">
    <stop offset="0" stop-color="#ffffff" stop-opacity="1" />
    <stop offset="1" stop-color="#c0c0c0" stop-opacity="1" />
</linearGradient>
<linearGradient gradientUnits="objectBoundingBox" x1="0" y1="0" x2="0" y2="1" id="gradient25">
    <stop offset="0" stop-color="#fcfcfc" stop-opacity="1" />
    <stop offset="1" stop-color="#fcfcfc" stop-opacity="1" />
</linearGradient>
<linearGradient gradientUnits="objectBoundingBox" x1="0" y1="0" x2="0" y2="1" id="gradient26">
    <stop offset="0" stop-color="#4aa5ff" stop-opacity="1" />
    <stop offset="1" stop-color="#4aa5ff" stop-opacity="1" />
</linearGradient>
<linearGradient gradientUnits="objectBoundingBox" x1="0" y1="0" x2="0" y2="1" id="gradient27">
    <stop offset="0" stop-color="#4aa5ff" stop-opacity="1" />
    <stop offset="1" stop-color="#4aa5ff" stop-opacity="1" />
</linearGradient>
<linearGradient gradientUnits="objectBoundingBox" x1="0" y1="0" x2="0" y2="1" id="gradient28">
    <stop offset="0" stop-color="#4aa5ff" stop-opacity="1" />
    <stop offset="1" stop-color="#4aa5ff" stop-opacity="1" />
</linearGradient>
</defs>
<g fill="none" stroke="black" stroke-width="1" fill-rule="evenodd" stroke-linecap="square" stroke-linejoin="bevel" >

<g fill="none" stroke="#000000" stroke-opacity="1" stroke-width="1" stroke-linecap="square" stroke-linejoin="bevel" transform="matrix(1,0,0,1,0,0)"
font-family="Noto Sans" font-size="11" font-weight="400" font-style="normal" 
>
</g>

<g fill="none" stroke="#000000" stroke-opacity="1" stroke-width="1" stroke-linecap="square" stroke-linejoin="bevel" transform="matrix(1,0,0,1,-634,-337)"
font-family="Noto Sans" font-size="11" font-weight="400" font-style="normal" 
>
</g>

<g stroke="none" transform="matrix(1,0,0,1,-634,-337)"
font-family="Noto Sans" font-size="11" font-weight="400" font-style="normal" 
>
<rect x="634" y="337" width="289.223" height="208.55"/>
</g>

<g fill="none" stroke="#000000" stroke-opacity="1" stroke-width="1" stroke-linecap="square" stroke-linejoin="bevel" transform="matrix(1,0,0,1,-634,-337)"
font-family="Noto Sans" font-size="11" font-weight="400" font-style="normal" 
>
</g>

<g fill="none" stroke="#000000" stroke-opacity="1" stroke-width="1" stroke-linecap="square" stroke-linejoin="bevel" transform="matrix(1,0,0,1,6,0)"
font-family="Noto Sans" font-size="11" font-weight="400" font-style="normal" 
>
</g>

<g fill="none" stroke="#000000" stroke-opacity="1" stroke-width="1" stroke-linecap="square" stroke-linejoin="bevel" transform="matrix(1,0,0,1,6,0)"
font-family="Noto Sans" font-size="11" font-weight="400" font-style="normal" 
>
</g>

<g fill="none" stroke="#000000" stroke-opacity="1" stroke-width="1" stroke-linecap="square" stroke-linejoin="bevel" transform="matrix(1,0,0,1,6,0)"
font-family="Noto Sans" font-size="11" font-weight="400" font-style="normal" 
>
</g>

<g fill="#204a87" fill-opacity="0.4" stroke="#0a182d" stroke-opacity="0.313725" stroke-width="1" stroke-linecap="square" stroke-linejoin="bevel" transform="matrix(1,0,0,1,6,0)"
font-family="Noto Sans" font-size="11" font-weight="400" font-style="normal" 
>
<path vector-effect="none" fill-rule="evenodd" d="M-6,5 C-6,2.23858 -3.76142,0 -1,0 L277.723,0 C280.484,0 282.723,2.23858 282.723,5 L282.723,203.05 C282.723,205.811 280.484,208.05 277.723,208.05 L-1,208.05 C-3.76142,208.05 -6,205.811 -6,203.05 L-6,5"/>
</g>

<g fill="none" stroke="#000000" stroke-opacity="1" stroke-width="1" stroke-linecap="square" stroke-linejoin="bevel" transform="matrix(1,0,0,1,6,0)"
font-family="Noto Sans" font-size="11" font-weight="400" font-style="normal" 
>
</g>

<g fill="none" stroke="#000000" stroke-opacity="1" stroke-width="1" stroke-linecap="square" stroke-linejoin="bevel" transform="matrix(1,0,0,1,8,2)"
font-family="Noto Sans" font-size="11" font-weight="400" font-style="normal" 
>
</g>

<g fill="none" stroke="#000000" stroke-opacity="1" stroke-width="1" stroke-linecap="square" stroke-linejoin="bevel" transform="matrix(1,0,0,1,8,2)"
font-family="Noto Sans" font-size="11.7" font-weight="700" font-style="italic" 
>
<text fill="#000000" fill-opacity="1" stroke="none" xml:space="preserve" x="0" y="15" font-family="Noto Sans" font-size="11.7" font-weight="700" font-style="italic" 
 >party</text>
</g>

<g fill="none" stroke="#000000" stroke-opacity="1" stroke-width="1" stroke-linecap="square" stroke-linejoin="bevel" transform="matrix(1,0,0,1,8,2)"
font-family="Noto Sans" font-size="11" font-weight="400" font-style="normal" 
>
</g>

<g fill="none" stroke="#000000" stroke-opacity="1" stroke-width="1" stroke-linecap="square" stroke-linejoin="bevel" transform="matrix(1,0,0,1,6,23)"
font-family="Noto Sans" font-size="11" font-weight="400" font-style="normal" 
>
</g>

<g fill="none" stroke="#000000" stroke-opacity="1" stroke-width="1" stroke-linecap="square" stroke-linejoin="bevel" transform="matrix(1,0,0,1,6,23)"
font-family="Noto Sans" font-size="11" font-weight="400" font-style="normal" 
>
</g>

<g fill="none" stroke="#000000" stroke-opacity="1" stroke-width="1" stroke-linecap="square" stroke-linejoin="bevel" transform="matrix(1,0,0,1,9.5,27.5)"
font-family="Noto Sans" font-size="11" font-weight="400" font-style="normal" 
>
</g>

<g fill="#323232" fill-opacity="0.235294" stroke="none" transform="matrix(1,0,0,1,9.5,27.5)"
font-family="Noto Sans" font-size="11" font-weight="400" font-style="normal" 
>
<path vector-effect="none" fill-rule="evenodd" d="M0,5 C0,2.23858 2.23858,0 5,0 L270.723,0 C273.484,0 275.723,2.23858 275.723,5 L275.723,174.05 C275.723,176.811 273.484,179.05 270.723,179.05 L5,179.05 C2.23858,179.05 0,176.811 0,174.05 L0,5"/>
</g>

<g fill="none" stroke="#000000" stroke-opacity="1" stroke-width="1" stroke-linecap="square" stroke-linejoin="bevel" transform="matrix(1,0,0,1,9.5,27.5)"
font-family="Noto Sans" font-size="11" font-weight="400" font-style="normal" 
>
</g>

<g fill="none" stroke="#000000" stroke-opacity="1" stroke-width="1" stroke-linecap="square" stroke-linejoin="bevel" transform="matrix(1,0,0,1,6,42.7)"
font-family="Noto Sans" font-size="11" font-weight="400" font-style="normal" 
>
</g>

<g fill="url(#gradient1)" stroke="#808080" stroke-opacity="1" stroke-width="0.85" stroke-linecap="square" stroke-linejoin="bevel" transform="matrix(1,0,0,1,6,42.7)"
font-family="Noto Sans" font-size="11" font-weight="400" font-style="normal" 
>
<rect x="0" y="0" width="274.873" height="120.2"/>
</g>

<g fill="none" stroke="#000000" stroke-opacity="1" stroke-width="1" stroke-linecap="square" stroke-linejoin="bevel" transform="matrix(1,0,0,1,6,42.7)"
font-family="Noto Sans" font-size="11" font-weight="400" font-style="normal" 
>
</g>

<g fill="none" stroke="#000000" stroke-opacity="1" stroke-width="1" stroke-linecap="square" stroke-linejoin="bevel" transform="matrix(1,0,0,1,6,162.75)"
font-family="Noto Sans" font-size="11" font-weight="400" font-style="normal" 
>
</g>

<g fill="url(#gradient2)" stroke="#808080" stroke-opacity="1" stroke-width="0.85" stroke-linecap="square" stroke-linejoin="bevel" transform="matrix(1,0,0,1,6,162.75)"
font-family="Noto Sans" font-size="11" font-weight="400" font-style="normal" 
>
<rect x="0" y="0" width="274.873" height="20.6"/>
</g>

<g fill="none" stroke="#000000" stroke-opacity="1" stroke-width="1" stroke-linecap="square" stroke-linejoin="bevel" transform="matrix(1,0,0,1,6,162.75)"
font-family="Noto Sans" font-size="11" font-weight="400" font-style="normal" 
>
</g>

<g fill="none" stroke="#000000" stroke-opacity="1" stroke-width="1" stroke-linecap="square" stroke-linejoin="bevel" transform="matrix(1,0,0,1,6,42.7)"
font-family="Noto Sans" font-size="11" font-weight="400" font-style="normal" 
>
</g>

<g fill="none" stroke="#000000" stroke-opacity="1" stroke-width="1" stroke-linecap="square" stroke-linejoin="bevel" transform="matrix(1,0,0,1,6,42.7)"
font-family="Noto Sans" font-size="11" font-weight="400" font-style="normal" 
>
</g>

<g fill="none" stroke="#000000" stroke-opacity="1" stroke-width="1" stroke-linecap="square" stroke-linejoin="bevel" transform="matrix(1,0,0,1,8,44.7)"
font-family="Noto Sans" font-size="11" font-weight="400" font-style="normal" 
>
</g>

<g fill="url(#gradient3)" stroke="#897416" stroke-opacity="1" stroke-width="0.9775" stroke-linecap="square" stroke-linejoin="bevel" transform="matrix(1,0,0,1,10,48.3816)"
font-family="Noto Sans" font-size="11" font-weight="400" font-style="normal" 
>
<path vector-effect="none" fill-rule="evenodd" d="M2,0 L0,2 L0,7 L2,9 L3,8 L3,6 L4,6 L5,7 L6,6 L7,5 L9,7 L9,3 L3,3 L3,1 L2,0"/>
</g>

<g fill="none" stroke="#000000" stroke-opacity="1" stroke-width="1" stroke-linecap="square" stroke-linejoin="bevel" transform="matrix(1,0,0,1,8,44.7)"
font-family="Noto Sans" font-size="11" font-weight="400" font-style="normal" 
>
</g>

<g fill="none" stroke="#2b7dba" stroke-opacity="1" stroke-width="1" stroke-linecap="square" stroke-linejoin="bevel" transform="matrix(1,0,0,1,23.9775,45.5)"
font-family="Noto Sans" font-size="9" font-weight="700" font-style="italic" 
>
<text fill="#2b7dba" fill-opacity="1" stroke="none" xml:space="preserve" x="0" y="12" font-family="Noto Sans" font-size="9" font-weight="700" font-style="italic" 
 >party_id</text>
</g>

<g fill="none" stroke="#000000" stroke-opacity="1" stroke-width="1" stroke-linecap="square" stroke-linejoin="bevel" transform="matrix(1,0,0,1,8,44.7)"
font-family="Noto Sans" font-size="11" font-weight="400" font-style="normal" 
>
</g>

<g fill="none" stroke="#4964a6" stroke-opacity="1" stroke-width="1" stroke-linecap="square" stroke-linejoin="bevel" transform="matrix(1,0,0,1,138.321,45.5)"
font-family="Noto Sans" font-size="9" font-weight="700" font-style="italic" 
>
<text fill="#4964a6" fill-opacity="1" stroke="none" xml:space="preserve" x="0" y="12" font-family="Noto Sans" font-size="9" font-weight="700" font-style="italic" 
 > bigserial</text>
</g>

<g fill="none" stroke="#000000" stroke-opacity="1" stroke-width="1" stroke-linecap="square" stroke-linejoin="bevel" transform="matrix(1,0,0,1,8,44.7)"
font-family="Noto Sans" font-size="11" font-weight="400" font-style="normal" 
>
</g>

<g fill="none" stroke="#25682d" stroke-opacity="1" stroke-width="1" stroke-linecap="square" stroke-linejoin="bevel" transform="matrix(1,0,0,1,240.888,45.5)"
font-family="Noto Sans" font-size="9" font-weight="400" font-style="italic" 
>
<text fill="#25682d" fill-opacity="1" stroke="none" xml:space="preserve" x="0" y="12" font-family="Noto Sans" font-size="9" font-weight="400" font-style="italic" 
 >« pk »</text>
</g>

<g fill="none" stroke="#000000" stroke-opacity="1" stroke-width="1" stroke-linecap="square" stroke-linejoin="bevel" transform="matrix(1,0,0,1,8,44.7)"
font-family="Noto Sans" font-size="11" font-weight="400" font-style="normal" 
>
</g>

<g fill="none" stroke="#000000" stroke-opacity="1" stroke-width="1" stroke-linecap="square" stroke-linejoin="bevel" transform="matrix(1,0,0,1,8,44.7)"
font-family="Noto Sans" font-size="11" font-weight="400" font-style="normal" 
>
</g>

<g fill="none" stroke="#000000" stroke-opacity="1" stroke-width="1" stroke-linecap="square" stroke-linejoin="bevel" transform="matrix(1,0,0,1,8,61.3)"
font-family="Noto Sans" font-size="11" font-weight="400" font-style="normal" 
>
</g>

<g fill="url(#gradient4)" stroke="#5a9ee4" stroke-opacity="1" stroke-width="0.9775" stroke-linecap="square" stroke-linejoin="bevel" transform="matrix(1,0,0,1,10,65.0113)"
font-family="Noto Sans" font-size="11" font-weight="400" font-style="normal" 
>
<circle cx="4.5" cy="4.5" r="4.5"/>
</g>

<g fill="none" stroke="#000000" stroke-opacity="1" stroke-width="1" stroke-linecap="square" stroke-linejoin="bevel" transform="matrix(1,0,0,1,8,61.3)"
font-family="Noto Sans" font-size="11" font-weight="400" font-style="normal" 
>
</g>

<g fill="none" stroke="#000000" stroke-opacity="1" stroke-width="1" stroke-linecap="square" stroke-linejoin="bevel" transform="matrix(1,0,0,1,23.9775,62.1)"
font-family="Noto Sans" font-size="9" font-weight="400" font-style="italic" 
>
<text fill="#000000" fill-opacity="1" stroke="none" xml:space="preserve" x="0" y="12" font-family="Noto Sans" font-size="9" font-weight="400" font-style="italic" 
 >party_uuid</text>
</g>

<g fill="none" stroke="#000000" stroke-opacity="1" stroke-width="1" stroke-linecap="square" stroke-linejoin="bevel" transform="matrix(1,0,0,1,8,61.3)"
font-family="Noto Sans" font-size="11" font-weight="400" font-style="normal" 
>
</g>

<g fill="none" stroke="#4964a6" stroke-opacity="1" stroke-width="1" stroke-linecap="square" stroke-linejoin="bevel" transform="matrix(1,0,0,1,138.321,62.1)"
font-family="Noto Sans" font-size="9" font-weight="700" font-style="italic" 
>
<text fill="#4964a6" fill-opacity="1" stroke="none" xml:space="preserve" x="0" y="12" font-family="Noto Sans" font-size="9" font-weight="700" font-style="italic" 
 > uuid</text>
</g>

<g fill="none" stroke="#000000" stroke-opacity="1" stroke-width="1" stroke-linecap="square" stroke-linejoin="bevel" transform="matrix(1,0,0,1,8,61.3)"
font-family="Noto Sans" font-size="11" font-weight="400" font-style="normal" 
>
</g>

<g fill="none" stroke="#25682d" stroke-opacity="1" stroke-width="1" stroke-linecap="square" stroke-linejoin="bevel" transform="matrix(1,0,0,1,240.248,62.1)"
font-family="Noto Sans" font-size="9" font-weight="400" font-style="italic" 
>
<text fill="#25682d" fill-opacity="1" stroke="none" xml:space="preserve" x="0" y="12" font-family="Noto Sans" font-size="9" font-weight="400" font-style="italic" 
 >« nn »</text>
</g>

<g fill="none" stroke="#000000" stroke-opacity="1" stroke-width="1" stroke-linecap="square" stroke-linejoin="bevel" transform="matrix(1,0,0,1,8,61.3)"
font-family="Noto Sans" font-size="11" font-weight="400" font-style="normal" 
>
</g>

<g fill="none" stroke="#000000" stroke-opacity="1" stroke-width="1" stroke-linecap="square" stroke-linejoin="bevel" transform="matrix(1,0,0,1,8,61.3)"
font-family="Noto Sans" font-size="11" font-weight="400" font-style="normal" 
>
</g>

<g fill="none" stroke="#000000" stroke-opacity="1" stroke-width="1" stroke-linecap="square" stroke-linejoin="bevel" transform="matrix(1,0,0,1,8,77.9)"
font-family="Noto Sans" font-size="11" font-weight="400" font-style="normal" 
>
</g>

<g fill="url(#gradient5)" stroke="#808080" stroke-opacity="1" stroke-width="0.9775" stroke-linecap="square" stroke-linejoin="bevel" transform="matrix(1,0,0,1,10,81.6112)"
font-family="Noto Sans" font-size="11" font-weight="400" font-style="normal" 
>
<circle cx="4.5" cy="4.5" r="4.5"/>
</g>

<g fill="none" stroke="#000000" stroke-opacity="1" stroke-width="1" stroke-linecap="square" stroke-linejoin="bevel" transform="matrix(1,0,0,1,8,77.9)"
font-family="Noto Sans" font-size="11" font-weight="400" font-style="normal" 
>
</g>

<g fill="none" stroke="#000000" stroke-opacity="1" stroke-width="1" stroke-linecap="square" stroke-linejoin="bevel" transform="matrix(1,0,0,1,23.9775,78.7)"
font-family="Noto Sans" font-size="9" font-weight="400" font-style="normal" 
>
<text fill="#000000" fill-opacity="1" stroke="none" xml:space="preserve" x="0" y="12" font-family="Noto Sans" font-size="9" font-weight="400" font-style="normal" 
 >date_of_birth</text>
</g>

<g fill="none" stroke="#000000" stroke-opacity="1" stroke-width="1" stroke-linecap="square" stroke-linejoin="bevel" transform="matrix(1,0,0,1,8,77.9)"
font-family="Noto Sans" font-size="11" font-weight="400" font-style="normal" 
>
</g>

<g fill="none" stroke="#4964a6" stroke-opacity="1" stroke-width="1" stroke-linecap="square" stroke-linejoin="bevel" transform="matrix(1,0,0,1,138.321,78.7)"
font-family="Noto Sans" font-size="9" font-weight="700" font-style="italic" 
>
<text fill="#4964a6" fill-opacity="1" stroke="none" xml:space="preserve" x="0" y="12" font-family="Noto Sans" font-size="9" font-weight="700" font-style="italic" 
 > timestamptz</text>
</g>

<g fill="none" stroke="#000000" stroke-opacity="1" stroke-width="1" stroke-linecap="square" stroke-linejoin="bevel" transform="matrix(1,0,0,1,8,77.9)"
font-family="Noto Sans" font-size="11" font-weight="400" font-style="normal" 
>
</g>

<g fill="none" stroke="#25682d" stroke-opacity="1" stroke-width="1" stroke-linecap="square" stroke-linejoin="bevel" transform="matrix(1,0,0,1,274.06,78.7)"
font-family="Noto Sans" font-size="9" font-weight="400" font-style="italic" 
>
<text fill="#25682d" fill-opacity="1" stroke="none" xml:space="preserve" x="0" y="12" font-family="Noto Sans" font-size="9" font-weight="400" font-style="italic" 
 > </text>
</g>

<g fill="none" stroke="#000000" stroke-opacity="1" stroke-width="1" stroke-linecap="square" stroke-linejoin="bevel" transform="matrix(1,0,0,1,8,77.9)"
font-family="Noto Sans" font-size="11" font-weight="400" font-style="normal" 
>
</g>

<g fill="none" stroke="#000000" stroke-opacity="1" stroke-width="1" stroke-linecap="square" stroke-linejoin="bevel" transform="matrix(1,0,0,1,8,77.9)"
font-family="Noto Sans" font-size="11" font-weight="400" font-style="normal" 
>
</g>

<g fill="none" stroke="#000000" stroke-opacity="1" stroke-width="1" stroke-linecap="square" stroke-linejoin="bevel" transform="matrix(1,0,0,1,8,94.5)"
font-family="Noto Sans" font-size="11" font-weight="400" font-style="normal" 
>
</g>

<g fill="url(#gradient6)" stroke="#808080" stroke-opacity="1" stroke-width="0.9775" stroke-linecap="square" stroke-linejoin="bevel" transform="matrix(1,0,0,1,10,98.2113)"
font-family="Noto Sans" font-size="11" font-weight="400" font-style="normal" 
>
<circle cx="4.5" cy="4.5" r="4.5"/>
</g>

<g fill="none" stroke="#000000" stroke-opacity="1" stroke-width="1" stroke-linecap="square" stroke-linejoin="bevel" transform="matrix(1,0,0,1,8,94.5)"
font-family="Noto Sans" font-size="11" font-weight="400" font-style="normal" 
>
</g>

<g fill="none" stroke="#000000" stroke-opacity="1" stroke-width="1" stroke-linecap="square" stroke-linejoin="bevel" transform="matrix(1,0,0,1,23.9775,95.3)"
font-family="Noto Sans" font-size="9" font-weight="400" font-style="normal" 
>
<text fill="#000000" fill-opacity="1" stroke="none" xml:space="preserve" x="0" y="12" font-family="Noto Sans" font-size="9" font-weight="400" font-style="normal" 
 >death_date</text>
</g>

<g fill="none" stroke="#000000" stroke-opacity="1" stroke-width="1" stroke-linecap="square" stroke-linejoin="bevel" transform="matrix(1,0,0,1,8,94.5)"
font-family="Noto Sans" font-size="11" font-weight="400" font-style="normal" 
>
</g>

<g fill="none" stroke="#4964a6" stroke-opacity="1" stroke-width="1" stroke-linecap="square" stroke-linejoin="bevel" transform="matrix(1,0,0,1,138.321,95.3)"
font-family="Noto Sans" font-size="9" font-weight="700" font-style="italic" 
>
<text fill="#4964a6" fill-opacity="1" stroke="none" xml:space="preserve" x="0" y="12" font-family="Noto Sans" font-size="9" font-weight="700" font-style="italic" 
 > timestamp</text>
</g>

<g fill="none" stroke="#000000" stroke-opacity="1" stroke-width="1" stroke-linecap="square" stroke-linejoin="bevel" transform="matrix(1,0,0,1,8,94.5)"
font-family="Noto Sans" font-size="11" font-weight="400" font-style="normal" 
>
</g>

<g fill="none" stroke="#25682d" stroke-opacity="1" stroke-width="1" stroke-linecap="square" stroke-linejoin="bevel" transform="matrix(1,0,0,1,274.06,95.3)"
font-family="Noto Sans" font-size="9" font-weight="400" font-style="italic" 
>
<text fill="#25682d" fill-opacity="1" stroke="none" xml:space="preserve" x="0" y="12" font-family="Noto Sans" font-size="9" font-weight="400" font-style="italic" 
 > </text>
</g>

<g fill="none" stroke="#000000" stroke-opacity="1" stroke-width="1" stroke-linecap="square" stroke-linejoin="bevel" transform="matrix(1,0,0,1,8,94.5)"
font-family="Noto Sans" font-size="11" font-weight="400" font-style="normal" 
>
</g>

<g fill="none" stroke="#000000" stroke-opacity="1" stroke-width="1" stroke-linecap="square" stroke-linejoin="bevel" transform="matrix(1,0,0,1,8,94.5)"
font-family="Noto Sans" font-size="11" font-weight="400" font-style="normal" 
>
</g>

<g fill="none" stroke="#000000" stroke-opacity="1" stroke-width="1" stroke-linecap="square" stroke-linejoin="bevel" transform="matrix(1,0,0,1,8,111.1)"
font-family="Noto Sans" font-size="11" font-weight="400" font-style="normal" 
>
</g>

<g fill="url(#gradient7)" stroke="#808080" stroke-opacity="1" stroke-width="0.9775" stroke-linecap="square" stroke-linejoin="bevel" transform="matrix(1,0,0,1,10,114.811)"
font-family="Noto Sans" font-size="11" font-weight="400" font-style="normal" 
>
<circle cx="4.5" cy="4.5" r="4.5"/>
</g>

<g fill="none" stroke="#000000" stroke-opacity="1" stroke-width="1" stroke-linecap="square" stroke-linejoin="bevel" transform="matrix(1,0,0,1,8,111.1)"
font-family="Noto Sans" font-size="11" font-weight="400" font-style="normal" 
>
</g>

<g fill="none" stroke="#000000" stroke-opacity="1" stroke-width="1" stroke-linecap="square" stroke-linejoin="bevel" transform="matrix(1,0,0,1,23.9775,111.9)"
font-family="Noto Sans" font-size="9" font-weight="400" font-style="normal" 
>
<text fill="#000000" fill-opacity="1" stroke="none" xml:space="preserve" x="0" y="12" font-family="Noto Sans" font-size="9" font-weight="400" font-style="normal" 
 >row_creation_time</text>
</g>

<g fill="none" stroke="#000000" stroke-opacity="1" stroke-width="1" stroke-linecap="square" stroke-linejoin="bevel" transform="matrix(1,0,0,1,8,111.1)"
font-family="Noto Sans" font-size="11" font-weight="400" font-style="normal" 
>
</g>

<g fill="none" stroke="#4964a6" stroke-opacity="1" stroke-width="1" stroke-linecap="square" stroke-linejoin="bevel" transform="matrix(1,0,0,1,138.321,111.9)"
font-family="Noto Sans" font-size="9" font-weight="700" font-style="italic" 
>
<text fill="#4964a6" fill-opacity="1" stroke="none" xml:space="preserve" x="0" y="12" font-family="Noto Sans" font-size="9" font-weight="700" font-style="italic" 
 > timestamptz</text>
</g>

<g fill="none" stroke="#000000" stroke-opacity="1" stroke-width="1" stroke-linecap="square" stroke-linejoin="bevel" transform="matrix(1,0,0,1,8,111.1)"
font-family="Noto Sans" font-size="11" font-weight="400" font-style="normal" 
>
</g>

<g fill="none" stroke="#25682d" stroke-opacity="1" stroke-width="1" stroke-linecap="square" stroke-linejoin="bevel" transform="matrix(1,0,0,1,274.06,111.9)"
font-family="Noto Sans" font-size="9" font-weight="400" font-style="italic" 
>
<text fill="#25682d" fill-opacity="1" stroke="none" xml:space="preserve" x="0" y="12" font-family="Noto Sans" font-size="9" font-weight="400" font-style="italic" 
 > </text>
</g>

<g fill="none" stroke="#000000" stroke-opacity="1" stroke-width="1" stroke-linecap="square" stroke-linejoin="bevel" transform="matrix(1,0,0,1,8,111.1)"
font-family="Noto Sans" font-size="11" font-weight="400" font-style="normal" 
>
</g>

<g fill="none" stroke="#000000" stroke-opacity="1" stroke-width="1" stroke-linecap="square" stroke-linejoin="bevel" transform="matrix(1,0,0,1,8,111.1)"
font-family="Noto Sans" font-size="11" font-weight="400" font-style="normal" 
>
</g>

<g fill="none" stroke="#000000" stroke-opacity="1" stroke-width="1" stroke-linecap="square" stroke-linejoin="bevel" transform="matrix(1,0,0,1,8,127.7)"
font-family="Noto Sans" font-size="11" font-weight="400" font-style="normal" 
>
</g>

<g fill="url(#gradient8)" stroke="#5a9ee4" stroke-opacity="1" stroke-width="0.9775" stroke-linecap="square" stroke-linejoin="bevel" transform="matrix(1,0,0,1,10,131.411)"
font-family="Noto Sans" font-size="11" font-weight="400" font-style="normal" 
>
<circle cx="4.5" cy="4.5" r="4.5"/>
</g>

<g fill="none" stroke="#000000" stroke-opacity="1" stroke-width="1" stroke-linecap="square" stroke-linejoin="bevel" transform="matrix(1,0,0,1,8,127.7)"
font-family="Noto Sans" font-size="11" font-weight="400" font-style="normal" 
>
</g>

<g fill="none" stroke="#000000" stroke-opacity="1" stroke-width="1" stroke-linecap="square" stroke-linejoin="bevel" transform="matrix(1,0,0,1,23.9775,128.5)"
font-family="Noto Sans" font-size="9" font-weight="400" font-style="italic" 
>
<text fill="#000000" fill-opacity="1" stroke="none" xml:space="preserve" x="0" y="12" font-family="Noto Sans" font-size="9" font-weight="400" font-style="italic" 
 >row_update_time</text>
</g>

<g fill="none" stroke="#000000" stroke-opacity="1" stroke-width="1" stroke-linecap="square" stroke-linejoin="bevel" transform="matrix(1,0,0,1,8,127.7)"
font-family="Noto Sans" font-size="11" font-weight="400" font-style="normal" 
>
</g>

<g fill="none" stroke="#4964a6" stroke-opacity="1" stroke-width="1" stroke-linecap="square" stroke-linejoin="bevel" transform="matrix(1,0,0,1,138.321,128.5)"
font-family="Noto Sans" font-size="9" font-weight="700" font-style="italic" 
>
<text fill="#4964a6" fill-opacity="1" stroke="none" xml:space="preserve" x="0" y="12" font-family="Noto Sans" font-size="9" font-weight="700" font-style="italic" 
 > timestamptz</text>
</g>

<g fill="none" stroke="#000000" stroke-opacity="1" stroke-width="1" stroke-linecap="square" stroke-linejoin="bevel" transform="matrix(1,0,0,1,8,127.7)"
font-family="Noto Sans" font-size="11" font-weight="400" font-style="normal" 
>
</g>

<g fill="none" stroke="#25682d" stroke-opacity="1" stroke-width="1" stroke-linecap="square" stroke-linejoin="bevel" transform="matrix(1,0,0,1,240.248,128.5)"
font-family="Noto Sans" font-size="9" font-weight="400" font-style="italic" 
>
<text fill="#25682d" fill-opacity="1" stroke="none" xml:space="preserve" x="0" y="12" font-family="Noto Sans" font-size="9" font-weight="400" font-style="italic" 
 >« nn »</text>
</g>

<g fill="none" stroke="#000000" stroke-opacity="1" stroke-width="1" stroke-linecap="square" stroke-linejoin="bevel" transform="matrix(1,0,0,1,8,127.7)"
font-family="Noto Sans" font-size="11" font-weight="400" font-style="normal" 
>
</g>

<g fill="none" stroke="#000000" stroke-opacity="1" stroke-width="1" stroke-linecap="square" stroke-linejoin="bevel" transform="matrix(1,0,0,1,8,127.7)"
font-family="Noto Sans" font-size="11" font-weight="400" font-style="normal" 
>
</g>

<g fill="none" stroke="#000000" stroke-opacity="1" stroke-width="1" stroke-linecap="square" stroke-linejoin="bevel" transform="matrix(1,0,0,1,8,144.3)"
font-family="Noto Sans" font-size="11" font-weight="400" font-style="normal" 
>
</g>

<g fill="url(#gradient9)" stroke="#808080" stroke-opacity="1" stroke-width="0.9775" stroke-linecap="square" stroke-linejoin="bevel" transform="matrix(1,0,0,1,10,148.011)"
font-family="Noto Sans" font-size="11" font-weight="400" font-style="normal" 
>
<circle cx="4.5" cy="4.5" r="4.5"/>
</g>

<g fill="none" stroke="#000000" stroke-opacity="1" stroke-width="1" stroke-linecap="square" stroke-linejoin="bevel" transform="matrix(1,0,0,1,8,144.3)"
font-family="Noto Sans" font-size="11" font-weight="400" font-style="normal" 
>
</g>

<g fill="none" stroke="#000000" stroke-opacity="1" stroke-width="1" stroke-linecap="square" stroke-linejoin="bevel" transform="matrix(1,0,0,1,23.9775,145.1)"
font-family="Noto Sans" font-size="9" font-weight="400" font-style="normal" 
>
<text fill="#000000" fill-opacity="1" stroke="none" xml:space="preserve" x="0" y="12" font-family="Noto Sans" font-size="9" font-weight="400" font-style="normal" 
 >row_update_info</text>
</g>

<g fill="none" stroke="#000000" stroke-opacity="1" stroke-width="1" stroke-linecap="square" stroke-linejoin="bevel" transform="matrix(1,0,0,1,8,144.3)"
font-family="Noto Sans" font-size="11" font-weight="400" font-style="normal" 
>
</g>

<g fill="none" stroke="#4964a6" stroke-opacity="1" stroke-width="1" stroke-linecap="square" stroke-linejoin="bevel" transform="matrix(1,0,0,1,138.321,145.1)"
font-family="Noto Sans" font-size="9" font-weight="700" font-style="italic" 
>
<text fill="#4964a6" fill-opacity="1" stroke="none" xml:space="preserve" x="0" y="12" font-family="Noto Sans" font-size="9" font-weight="700" font-style="italic" 
 > text</text>
</g>

<g fill="none" stroke="#000000" stroke-opacity="1" stroke-width="1" stroke-linecap="square" stroke-linejoin="bevel" transform="matrix(1,0,0,1,8,144.3)"
font-family="Noto Sans" font-size="11" font-weight="400" font-style="normal" 
>
</g>

<g fill="none" stroke="#25682d" stroke-opacity="1" stroke-width="1" stroke-linecap="square" stroke-linejoin="bevel" transform="matrix(1,0,0,1,274.06,145.1)"
font-family="Noto Sans" font-size="9" font-weight="400" font-style="italic" 
>
<text fill="#25682d" fill-opacity="1" stroke="none" xml:space="preserve" x="0" y="12" font-family="Noto Sans" font-size="9" font-weight="400" font-style="italic" 
 > </text>
</g>

<g fill="none" stroke="#000000" stroke-opacity="1" stroke-width="1" stroke-linecap="square" stroke-linejoin="bevel" transform="matrix(1,0,0,1,8,144.3)"
font-family="Noto Sans" font-size="11" font-weight="400" font-style="normal" 
>
</g>

<g fill="none" stroke="#000000" stroke-opacity="1" stroke-width="1" stroke-linecap="square" stroke-linejoin="bevel" transform="matrix(1,0,0,1,8,144.3)"
font-family="Noto Sans" font-size="11" font-weight="400" font-style="normal" 
>
</g>

<g fill="none" stroke="#000000" stroke-opacity="1" stroke-width="1" stroke-linecap="square" stroke-linejoin="bevel" transform="matrix(1,0,0,1,6,162.75)"
font-family="Noto Sans" font-size="11" font-weight="400" font-style="normal" 
>
</g>

<g fill="none" stroke="#000000" stroke-opacity="1" stroke-width="1" stroke-linecap="square" stroke-linejoin="bevel" transform="matrix(1,0,0,1,6,162.75)"
font-family="Noto Sans" font-size="11" font-weight="400" font-style="normal" 
>
</g>

<g fill="none" stroke="#000000" stroke-opacity="1" stroke-width="1" stroke-linecap="square" stroke-linejoin="bevel" transform="matrix(1,0,0,1,8,164.75)"
font-family="Noto Sans" font-size="11" font-weight="400" font-style="normal" 
>
</g>

<g fill="url(#gradient10)" stroke="#4c4c98" stroke-opacity="1" stroke-width="0.9775" stroke-linecap="square" stroke-linejoin="bevel" transform="matrix(1,0,0,1,10,168.36)"
font-family="Noto Sans" font-size="11" font-weight="400" font-style="normal" 
>
<path vector-effect="none" fill-rule="evenodd" d="M5,0 L0,5 L4,9 L9,9 L9,4 L5,0"/>
</g>

<g fill="none" stroke="#000000" stroke-opacity="1" stroke-width="1" stroke-linecap="square" stroke-linejoin="bevel" transform="matrix(1,0,0,1,8,164.75)"
font-family="Noto Sans" font-size="11" font-weight="400" font-style="normal" 
>
</g>

<g fill="none" stroke="#082061" stroke-opacity="1" stroke-width="1" stroke-linecap="square" stroke-linejoin="bevel" transform="matrix(1,0,0,1,23.8343,165.55)"
font-family="Noto Sans" font-size="9" font-weight="400" font-style="italic" 
>
<text fill="#082061" fill-opacity="1" stroke="none" xml:space="preserve" x="0" y="12" font-family="Noto Sans" font-size="9" font-weight="400" font-style="italic" 
 >party_pk</text>
</g>

<g fill="none" stroke="#000000" stroke-opacity="1" stroke-width="1" stroke-linecap="square" stroke-linejoin="bevel" transform="matrix(1,0,0,1,8,164.75)"
font-family="Noto Sans" font-size="11" font-weight="400" font-style="normal" 
>
</g>

<g fill="none" stroke="#4964a6" stroke-opacity="1" stroke-width="1" stroke-linecap="square" stroke-linejoin="bevel" transform="matrix(1,0,0,1,138.321,165.55)"
font-family="Noto Sans" font-size="9" font-weight="700" font-style="italic" 
>
<text fill="#4964a6" fill-opacity="1" stroke="none" xml:space="preserve" x="0" y="12" font-family="Noto Sans" font-size="9" font-weight="700" font-style="italic" 
 > constraint</text>
</g>

<g fill="none" stroke="#000000" stroke-opacity="1" stroke-width="1" stroke-linecap="square" stroke-linejoin="bevel" transform="matrix(1,0,0,1,8,164.75)"
font-family="Noto Sans" font-size="11" font-weight="400" font-style="normal" 
>
</g>

<g fill="none" stroke="#25682d" stroke-opacity="1" stroke-width="1" stroke-linecap="square" stroke-linejoin="bevel" transform="matrix(1,0,0,1,240.888,165.55)"
font-family="Noto Sans" font-size="9" font-weight="400" font-style="italic" 
>
<text fill="#25682d" fill-opacity="1" stroke="none" xml:space="preserve" x="0" y="12" font-family="Noto Sans" font-size="9" font-weight="400" font-style="italic" 
 >« pk »</text>
</g>

<g fill="none" stroke="#000000" stroke-opacity="1" stroke-width="1" stroke-linecap="square" stroke-linejoin="bevel" transform="matrix(1,0,0,1,8,164.75)"
font-family="Noto Sans" font-size="11" font-weight="400" font-style="normal" 
>
</g>

<g fill="none" stroke="#000000" stroke-opacity="1" stroke-width="1" stroke-linecap="square" stroke-linejoin="bevel" transform="matrix(1,0,0,1,8,164.75)"
font-family="Noto Sans" font-size="11" font-weight="400" font-style="normal" 
>
</g>

<g fill="none" stroke="#000000" stroke-opacity="1" stroke-width="1" stroke-linecap="square" stroke-linejoin="bevel" transform="matrix(1,0,0,1,6,183.2)"
font-family="Noto Sans" font-size="11" font-weight="400" font-style="normal" 
>
</g>

<g fill="url(#gradient11)" stroke="#808080" stroke-opacity="1" stroke-width="0.85" stroke-linecap="square" stroke-linejoin="bevel" transform="matrix(1,0,0,1,6,183.2)"
font-family="Noto Sans" font-size="11" font-weight="400" font-style="normal" 
>
<path vector-effect="none" fill-rule="evenodd" d="M0,0 L274.873,0 L274.873,13 L274.797,13.8682 L274.571,14.7101 L274.203,15.5 L273.703,16.2139 L273.087,16.8302 L272.373,17.3301 L271.583,17.6985 L270.741,17.924 L269.873,18 L5,18 L4.13176,17.924 L3.2899,17.6985 L2.5,17.3301 L1.78606,16.8302 L1.16978,16.2139 L0.669873,15.5 L0.301537,14.7101 L0.0759612,13.8682 L0,13 L0,0"/>
</g>

<g fill="url(#gradient12)" stroke="#808080" stroke-opacity="1" stroke-width="0.85" stroke-linecap="square" stroke-linejoin="bevel" transform="matrix(1,0,0,1,201.448,187.695)"
font-family="Noto Sans" font-size="11" font-weight="400" font-style="normal" 
opacity="0.4" >
<path vector-effect="none" fill-rule="evenodd" d="M0,0 L10,0 L5,8 L0,0"/>
</g>

<g fill="url(#gradient13)" stroke="#808080" stroke-opacity="1" stroke-width="0.85" stroke-linecap="square" stroke-linejoin="bevel" transform="matrix(1,0,0,1,6,183.2)"
font-family="Noto Sans" font-size="11" font-weight="400" font-style="normal" 
>
</g>

<g fill="url(#gradient14)" stroke="#808080" stroke-opacity="1" stroke-width="0.85" stroke-linecap="square" stroke-linejoin="bevel" transform="matrix(1,0,0,1,181.063,187.695)"
font-family="Noto Sans" font-size="11" font-weight="400" font-style="normal" 
>
<path vector-effect="none" fill-rule="evenodd" d="M5,0 L0,8 L10,8 L5,0"/>
</g>

<g fill="url(#gradient15)" stroke="#808080" stroke-opacity="1" stroke-width="0.85" stroke-linecap="square" stroke-linejoin="bevel" transform="matrix(1,0,0,1,6,183.2)"
font-family="Noto Sans" font-size="11" font-weight="400" font-style="normal" 
>
</g>

<g fill="url(#gradient16)" stroke="#808080" stroke-opacity="1" stroke-width="0.85" stroke-linecap="square" stroke-linejoin="bevel" transform="matrix(1,0,0,1,139.199,186.614)"
font-family="Noto Sans" font-size="11" font-weight="400" font-style="normal" 
opacity="0.4" >
<path vector-effect="none" fill-rule="evenodd" d="M0,0 L8,5 L0,10 L0,0"/>
</g>

<g fill="url(#gradient17)" stroke="#808080" stroke-opacity="1" stroke-width="0.85" stroke-linecap="square" stroke-linejoin="bevel" transform="matrix(1,0,0,1,6,183.2)"
font-family="Noto Sans" font-size="11" font-weight="400" font-style="normal" 
>
</g>

<g fill="url(#gradient18)" stroke="#808080" stroke-opacity="1" stroke-width="0.85" stroke-linecap="square" stroke-linejoin="bevel" transform="matrix(1,0,0,1,118.188,186.807)"
font-family="Noto Sans" font-size="11" font-weight="400" font-style="normal" 
opacity="0.4" >
<path vector-effect="none" fill-rule="evenodd" d="M0,5 L8,0 L8,10 L0,5"/>
</g>

<g fill="url(#gradient19)" stroke="#808080" stroke-opacity="1" stroke-width="0.85" stroke-linecap="square" stroke-linejoin="bevel" transform="matrix(1,0,0,1,6,183.2)"
font-family="Noto Sans" font-size="11" font-weight="400" font-style="normal" 
>
</g>

<g fill="url(#gradient20)" stroke="#808080" stroke-opacity="1" stroke-width="0.85" stroke-linecap="square" stroke-linejoin="bevel" transform="matrix(1,0,0,1,160.049,186.611)"
font-family="Noto Sans" font-size="11" font-weight="400" font-style="normal" 
opacity="0.4" >
<path vector-effect="none" fill-rule="evenodd" d="M0,0 L6,4 L6,0 L8,0 L8,10 L6,10 L6,6 L0,10 L0,0"/>
</g>

<g fill="url(#gradient21)" stroke="#808080" stroke-opacity="1" stroke-width="0.85" stroke-linecap="square" stroke-linejoin="bevel" transform="matrix(1,0,0,1,6,183.2)"
font-family="Noto Sans" font-size="11" font-weight="400" font-style="normal" 
>
</g>

<g fill="url(#gradient22)" stroke="#808080" stroke-opacity="1" stroke-width="0.85" stroke-linecap="square" stroke-linejoin="bevel" transform="matrix(1,0,0,1,97.338,186.775)"
font-family="Noto Sans" font-size="11" font-weight="400" font-style="normal" 
opacity="0.4" >
<path vector-effect="none" fill-rule="evenodd" d="M0,0 L2,0 L2,4 L8,0 L8,10 L2,6 L2,10 L0,10 L0,0"/>
</g>

<g fill="url(#gradient23)" stroke="#808080" stroke-opacity="1" stroke-width="0.85" stroke-linecap="square" stroke-linejoin="bevel" transform="matrix(1,0,0,1,6,183.2)"
font-family="Noto Sans" font-size="11" font-weight="400" font-style="normal" 
>
</g>

<g fill="url(#gradient24)" stroke="#808080" stroke-opacity="1" stroke-width="0.85" stroke-linecap="square" stroke-linejoin="bevel" transform="matrix(1,0,0,1,76.4364,187.749)"
font-family="Noto Sans" font-size="11" font-weight="400" font-style="normal" 
>
<path vector-effect="none" fill-rule="evenodd" d="M4,0 L8,4 L4,8 L0,4 L4,0"/>
</g>

<g fill="url(#gradient25)" stroke="#808080" stroke-opacity="1" stroke-width="0.85" stroke-linecap="square" stroke-linejoin="bevel" transform="matrix(1,0,0,1,6,183.2)"
font-family="Noto Sans" font-size="11" font-weight="400" font-style="normal" 
>
</g>

<g fill="none" stroke="#000000" stroke-opacity="1" stroke-width="1" stroke-linecap="square" stroke-linejoin="bevel" transform="matrix(1,0,0,1,6,183.2)"
font-family="Noto Sans" font-size="11" font-weight="400" font-style="normal" 
>
</g>

<g fill="none" stroke="#000000" stroke-opacity="1" stroke-width="1" stroke-linecap="square" stroke-linejoin="bevel" transform="matrix(1,0,0,1,6,23)"
font-family="Noto Sans" font-size="11" font-weight="400" font-style="normal" 
>
</g>

<g fill="url(#gradient26)" stroke="#20486f" stroke-opacity="1" stroke-width="0.85" stroke-linecap="square" stroke-linejoin="bevel" transform="matrix(1,0,0,1,6,23)"
font-family="Noto Sans" font-size="11" font-weight="400" font-style="normal" 
>
<path vector-effect="none" fill-rule="evenodd" d="M-2.66454e-15,5 L0.0759612,4.13176 L0.301537,3.2899 L0.669873,2.5 L1.16978,1.78606 L1.78606,1.16978 L2.5,0.669873 L3.2899,0.301537 L4.13176,0.0759612 L5,0 L269.873,-9.23706e-14 L270.741,0.0759612 L271.583,0.301537 L272.373,0.669873 L273.087,1.16978 L273.703,1.78606 L274.203,2.5 L274.571,3.2899 L274.797,4.13176 L274.873,5 L274.873,19.85 L0,19.85 L-2.66454e-15,5"/>
</g>

<g fill="url(#gradient27)" stroke="#000000" stroke-opacity="1" stroke-width="1" stroke-linecap="square" stroke-linejoin="bevel" transform="matrix(1,0,0,1,6,23)"
font-family="Noto Sans" font-size="9" font-weight="400" font-style="italic" 
>
<text fill="#000000" fill-opacity="1" stroke="none" xml:space="preserve" x="0" y="0" font-family="Noto Sans" font-size="9" font-weight="400" font-style="italic" 
 > </text>
</g>

<g fill="url(#gradient28)" stroke="#ffffff" stroke-opacity="1" stroke-width="1" stroke-linecap="square" stroke-linejoin="bevel" transform="matrix(1,0,0,1,6,23)"
font-family="Noto Sans" font-size="9" font-weight="700" font-style="normal" 
>
<text fill="#ffffff" fill-opacity="1" stroke="none" xml:space="preserve" x="119.797" y="13.2333" font-family="Noto Sans" font-size="9" font-weight="700" font-style="normal" 
 >party</text>
</g>

<g fill="none" stroke="#000000" stroke-opacity="1" stroke-width="1" stroke-linecap="square" stroke-linejoin="bevel" transform="matrix(1,0,0,1,6,23)"
font-family="Noto Sans" font-size="11" font-weight="400" font-style="normal" 
>
</g>

<g fill="none" stroke="#000000" stroke-opacity="1" stroke-width="1" stroke-linecap="square" stroke-linejoin="bevel" transform="matrix(1,0,0,1,0,0)"
font-family="Noto Sans" font-size="11" font-weight="400" font-style="normal" 
>
</g>
</g>
</svg>
